# xmcd
#
# Track frame offsets:
#	150
#	14101
#	28030
#	42260
#	56691
#	70130
#	83871
#	96845
#	111370
#	123769
#	137959
#	152158
#	164518
#	177567
#	189619
#	202166
#	214968
#	228915
#	242497
#	253058
#	267577
#	279905
#	292381
#	305245
#	318672
#	332966
#
# Disc length: 4628 seconds
#
# Revision: 0
# Processed by: cddbd v1.5.2PL0 Copyright (c) Steve Scherf et al.
# Submitted via: audiograbber 1.83.01
#
DISCID=a412121a
DTITLE=Betty Hutton - The Blonde Bombshell
DYEAR=2006
DGENRE=Soundtrack
TTITLE0=Doctor, Lawyer, Indian Chief
TTITLE1=Arthur Murray Taught Me Dancing In A Hurry
TTITLE2=His Rocking Horse Ran Away
TTITLE3=It Had To Be You
TTITLE4=What Do You Want To Make These Eyes At Me For?
TTITLE5=Stuff Like That There
TTITLE6=Blue Skies
TTITLE7=Doin' It The Hard Way
TTITLE8=Don't Tell Me That Story
TTITLE9=The Sewing Machine
TTITLE10=I Wish I Didn't Love You So
TTITLE11=Poppa, Don't Preach To Me
TTITLE12=Rumble, Rumble, Rumble
TTITLE13=Now That I Need You
TTITLE14=I Wake Up In The Morning Feeling Fine
TTITLE15=Doin' What Comes Natur'lly
TTITLE16=You Can't Get A Man With A Gun
TTITLE17=They Say It's Wonderful (With Howard Keel)
TTITLE18=I've Got The Sun In The Morning
TTITLE19=Anything You Can Do (With Howard Keel)
TTITLE20=Orange Coloured Sky
TTITLE21=A Bushel And A Peck (With Perry Como)
TTITLE22=She's A Lady (With Perry Como)
TTITLE23=Banana Boat
TTITLE24=It's Oh, So Quiet!
TTITLE25=Murder, He Says
EXTD=
EXTT0=
EXTT1=
EXTT2=
EXTT3=
EXTT4=
EXTT5=
EXTT6=
EXTT7=
EXTT8=
EXTT9=
EXTT10=
EXTT11=
EXTT12=
EXTT13=
EXTT14=
EXTT15=
EXTT16=
EXTT17=
EXTT18=
EXTT19=
EXTT20=
EXTT21=
EXTT22=
EXTT23=
EXTT24=
EXTT25=
PLAYORDER=
